<svg version="1.1" id="Layer_1" xmlns="http://www.w3.org/2000/svg" xmlns:xlink="http://www.w3.org/1999/xlink" x="0px" y="0px"
	 width="100%" viewBox="0 0 2160 300" enable-background="new 0 0 2160 300" xml:space="preserve">
<path fill="#183642" opacity="1.000000" stroke="none" 
	d="
M2161.000000,200.999969 
	C2161.000000,204.030426 2161.000000,207.060852 2160.663574,210.626907 
	C2159.195557,211.862427 2158.076172,212.582169 2156.931396,213.259247 
	C2131.871582,228.080627 2105.192627,236.866913 2075.949707,230.752731 
	C2055.038330,226.380539 2035.567627,217.080551 2017.936157,205.235550 
	C1995.935303,190.455231 1986.221436,167.409454 1981.025269,142.284973 
	C1979.386353,134.361252 1978.384033,126.305908 1977.071655,118.196083 
	C1967.534180,126.820747 1958.233032,135.347565 1948.806152,143.733078 
	C1926.439575,163.628662 1904.278564,183.372253 1877.059326,197.268112 
	C1846.946533,212.641205 1816.445679,225.172028 1782.532837,228.367310 
	C1757.175659,230.756470 1732.249512,229.316818 1708.297485,220.092209 
	C1682.180176,210.033798 1662.944580,192.835205 1653.908691,165.560425 
	C1652.507446,161.330658 1650.649902,157.252090 1648.998901,153.092575 
	C1640.895996,163.588196 1633.478760,173.849060 1625.387329,183.547318 
	C1605.519409,207.360168 1582.065552,226.304565 1551.870850,235.580811 
	C1516.792358,246.357468 1484.135620,241.521042 1454.213135,220.010468 
	C1434.695190,205.979568 1419.726929,187.821472 1407.184448,167.514343 
	C1406.200439,165.921265 1405.177979,164.352081 1404.255127,162.900360 
	C1393.981812,176.576096 1384.474365,190.058914 1374.110840,202.848038 
	C1355.352295,225.996872 1333.694702,245.828995 1305.727661,257.445343 
	C1276.418945,269.618958 1247.108154,271.687988 1218.169800,255.993271 
	C1215.849731,254.734985 1213.531738,253.311096 1211.032837,252.572205 
	C1199.002075,249.014725 1188.405640,242.949692 1179.142700,234.583038 
	C1162.107178,219.195618 1153.529907,199.265137 1149.003418,177.304276 
	C1147.341797,169.242874 1146.269897,161.059891 1144.897461,152.741791 
	C1144.198242,153.111404 1143.706787,153.257355 1143.365112,153.568176 
	C1126.242065,169.148209 1109.221680,184.842834 1091.970947,200.279861 
	C1086.028198,205.597809 1080.008057,211.133423 1073.165039,215.081909 
	C1055.327637,225.373901 1037.480225,235.854858 1018.798279,244.434540 
	C976.224792,263.986603 931.768005,270.013611 885.979492,257.768250 
	C857.974243,250.278748 836.387512,234.104614 824.100647,206.965790 
	C822.631104,203.720001 822.907654,201.647552 826.216980,200.160736 
	C827.239990,199.701111 828.190491,199.080063 828.708801,198.791779 
	C824.444031,176.899780 820.264893,155.447647 815.924866,133.169601 
	C814.500916,135.290054 813.629211,136.677246 812.670532,138.001465 
	C804.377319,149.457016 796.550171,161.291199 787.664307,172.267883 
	C768.964905,195.367203 746.945068,214.386948 718.463135,224.662628 
	C693.748169,233.579285 668.780945,235.235092 643.667725,226.391495 
	C619.359070,217.831253 600.259216,202.059296 584.369507,182.242966 
	C577.150574,173.240143 570.763000,163.570786 563.835999,153.979050 
	C562.690979,155.565979 561.502869,157.132767 560.398010,158.756134 
	C547.731018,177.366577 534.299133,195.344574 518.501160,211.492081 
	C500.410736,229.982712 479.904388,244.657791 455.016449,252.493866 
	C433.707520,259.203094 412.203766,260.973358 390.861511,252.832932 
	C381.115112,249.115448 371.723450,244.468567 362.167999,240.249756 
	C348.481567,234.207062 337.066803,225.342575 328.160675,213.244629 
	C315.669495,196.276794 310.061737,176.784149 307.014404,156.330093 
	C306.397583,152.190033 305.918243,148.029495 305.375488,143.878403 
	C304.826996,143.590866 304.278503,143.303314 303.730011,143.015778 
	C301.854645,145.342377 300.277222,148.010895 298.058960,149.943985 
	C268.284912,175.890137 241.054611,204.634201 204.854904,222.948914 
	C172.347656,239.395477 139.453812,252.657593 102.819145,254.507614 
	C65.137932,256.410522 29.727556,250.336349 1.000000,223.000000 
	C1.000000,202.641754 1.000000,182.283508 1.364338,161.466766 
	C6.687220,169.252274 10.987853,177.989807 16.730804,185.645370 
	C32.370041,206.493057 51.340939,223.366684 76.727219,231.577835 
	C91.276558,236.283783 106.233727,237.289474 121.394722,235.690475 
	C120.665382,235.218201 119.900597,235.061035 119.127945,234.972580 
	C106.321602,233.506500 93.858818,230.658463 82.506004,224.378372 
	C54.452572,208.859879 34.665283,185.693848 21.377188,156.828476 
	C19.431955,152.602905 16.927940,151.111023 12.914506,152.326172 
	C8.844404,153.558456 4.963672,155.416199 0.999999,157.000000 
	C1.000000,105.008797 1.000000,53.017586 1.000000,1.054142 
	C721.000000,1.054142 1441.000000,1.054142 2161.000000,1.054142 
	C2161.000000,66.430435 2161.000000,131.752579 2160.654297,197.607681 
	C2137.218506,210.628891 2112.871826,219.345383 2086.645264,223.092834 
	C2090.594238,224.006470 2094.591064,224.682022 2098.606445,224.821732 
	C2116.947998,225.459824 2133.123291,218.975525 2148.282959,209.341354 
	C2152.561035,206.622452 2156.762939,203.783722 2161.000000,200.999969 
M328.311859,102.161049 
	C336.876892,101.044174 335.650208,101.065964 336.382843,109.209389 
	C337.961243,126.753792 339.013672,144.454880 342.281769,161.713028 
	C347.574310,189.661652 359.741882,214.287567 382.258911,232.890366 
	C386.777313,236.623322 391.514862,239.322006 397.416016,239.619751 
	C405.974609,240.051590 414.536560,240.417206 423.097046,240.811081 
	C423.137299,240.249634 423.177521,239.688171 423.217743,239.126709 
	C415.805634,238.594345 409.082184,237.026443 403.041229,231.918076 
	C385.292145,216.909073 373.945587,197.995560 367.003296,176.121979 
	C359.675842,153.034851 357.738983,129.186188 357.171112,105.174950 
	C357.070740,100.930466 355.491882,99.741013 351.719177,100.876511 
	C348.484558,101.850029 345.298523,102.984825 341.520203,104.237541 
	C342.537567,97.963722 339.470062,97.429993 335.067139,98.939392 
	C332.563873,99.797562 330.099213,100.768280 327.338165,102.040672 
	C327.185822,102.268585 327.033478,102.496498 326.881134,102.724403 
	C327.174408,102.695564 327.467682,102.666733 327.760986,102.637901 
	C327.664246,102.293427 327.567505,101.948952 328.311859,102.161049 
M875.397339,191.088791 
	C870.630066,182.368210 863.835022,174.147491 861.535339,164.818634 
	C857.291687,147.603699 855.759094,129.726685 852.918335,112.154396 
	C852.349731,108.636894 853.872253,103.580383 847.627563,103.091583 
	C847.106628,103.050804 846.572632,101.179375 846.321533,100.094414 
	C845.759277,97.664574 845.551086,95.140800 844.841492,92.761780 
	C844.452209,91.456337 843.034790,89.237061 842.596313,89.354500 
	C837.900085,90.612183 832.918457,91.591789 828.807800,94.000443 
	C825.491943,95.943405 824.020508,99.909004 826.682617,104.407646 
	C831.571777,103.524948 831.394165,107.425949 831.838989,110.734917 
	C833.257874,121.289986 834.392029,131.889832 836.091919,142.398666 
	C837.576050,151.573730 837.820557,161.572357 841.819214,169.612381 
	C861.614075,209.413483 890.427063,238.695312 937.069397,244.472916 
	C946.231934,245.607880 955.655396,244.636368 964.385986,244.636368 
	C957.223511,243.382141 949.407043,242.579880 941.901855,240.598465 
	C913.445129,233.085724 892.936279,214.623230 875.397339,191.088791 
M1200.210327,217.273682 
	C1207.491333,225.447983 1214.684326,233.702942 1222.087891,241.764725 
	C1226.204346,246.247192 1231.594849,248.519562 1237.644409,248.653290 
	C1246.355347,248.845856 1255.073853,248.702484 1263.789062,248.702484 
	C1252.573120,249.073151 1244.655273,243.022995 1237.136963,235.773102 
	C1215.921265,215.315002 1205.610596,189.487671 1201.196289,161.145355 
	C1198.794922,145.728806 1198.295044,130.014267 1197.003418,114.428680 
	C1196.809204,112.085915 1197.274170,109.650482 1193.719116,109.486443 
	C1183.697632,109.024025 1175.717896,117.015015 1176.483032,126.864136 
	C1176.998779,133.505814 1177.315552,140.168961 1178.042969,146.787155 
	C1180.757324,171.482849 1186.388794,195.292068 1200.210327,217.273682 
M2031.237671,114.068008 
	C2030.528076,103.777359 2029.342529,93.491409 2029.240845,83.194771 
	C2029.137329,72.687469 2027.279419,74.281036 2019.410400,76.622185 
	C2017.991577,77.044273 2016.176270,77.454712 2015.409180,78.503410 
	C2012.889404,81.948723 2008.585083,85.861160 2008.860718,89.280258 
	C2010.259644,106.638290 2011.747925,124.138649 2015.350586,141.134262 
	C2020.657959,166.171066 2032.454346,187.981430 2051.737549,205.632660 
	C2061.493652,214.562912 2072.726562,214.736511 2084.872070,214.393814 
	C2084.708984,213.557938 2083.979004,213.490265 2083.483154,213.113785 
	C2082.029053,212.009903 2080.725830,210.705399 2079.261230,209.617020 
	C2065.940918,199.717728 2055.631592,187.319397 2047.996582,172.590439 
	C2038.603760,154.470215 2034.123535,134.972870 2031.237671,114.068008 
M1764.976929,203.700409 
	C1740.705688,193.957474 1722.241333,177.066681 1707.303223,156.114380 
	C1700.789185,146.977798 1694.127563,137.766464 1693.167480,125.824524 
	C1692.692871,119.921082 1690.933350,114.132408 1690.176758,108.237709 
	C1688.741211,97.051941 1680.326172,95.221626 1672.733887,97.291252 
	C1665.487183,99.266693 1660.209839,104.777733 1664.064575,112.987747 
	C1667.011230,119.263046 1669.781982,125.624458 1672.491821,132.006622 
	C1685.033203,161.543777 1705.698975,183.848373 1733.315918,199.761230 
	C1748.629272,208.584778 1774.577271,213.170151 1790.311890,210.176727 
	C1781.545776,207.952637 1773.638184,205.946350 1764.976929,203.700409 
M1483.647949,199.855576 
	C1500.860474,212.150253 1521.939331,217.336273 1536.854736,213.846420 
	C1529.012207,210.572433 1519.195312,207.633957 1510.575806,202.632050 
	C1493.173828,192.533600 1482.021973,176.401016 1472.836792,159.011215 
	C1466.169067,146.387390 1460.407837,133.287155 1454.005859,120.517937 
	C1453.105469,118.722176 1450.611572,116.199577 1449.276001,116.431892 
	C1445.159912,117.147903 1441.016479,118.613052 1437.339844,120.621971 
	C1435.009521,121.895279 1434.385986,124.520248 1435.935059,127.565247 
	C1441.582886,138.667358 1446.568970,150.115936 1452.457764,161.083084 
	C1460.294556,175.677933 1469.732910,189.149963 1483.647949,199.855576 
M610.780579,107.383560 
	C606.964966,108.273560 602.888550,108.608353 599.420227,110.237617 
	C596.864746,111.438034 593.841736,113.846428 595.909485,117.756302 
	C604.913818,134.782471 612.782715,152.556686 623.272705,168.616501 
	C640.970764,195.711487 666.372314,208.857025 699.419312,204.587982 
	C695.511963,203.386200 691.457031,202.637787 687.527588,201.467590 
	C668.593018,195.828720 654.904968,183.351486 643.764099,167.603928 
	C631.769165,150.648972 623.558716,131.707123 614.966370,112.958664 
	C614.105530,111.080414 612.655273,109.472328 610.780579,107.383560 
M628.140625,204.331894 
	C682.732300,244.991165 739.761230,217.941193 767.748840,178.078430 
	C767.141968,178.234756 766.564453,178.204193 766.301819,178.476944 
	C754.614624,190.612228 740.006836,198.000916 724.765320,204.531311 
	C702.238281,214.183289 679.097229,216.062958 655.387878,210.435089 
	C634.006836,205.359879 617.935120,192.397537 606.418091,174.238968 
	C597.102112,159.550705 589.216248,143.955399 580.669556,128.715317 
	C579.389648,130.610229 577.456360,133.093857 575.995422,135.829666 
	C575.442993,136.864059 575.520203,138.726593 576.090149,139.796112 
	C589.203430,164.403671 604.933167,186.936874 628.140625,204.331894 
M1471.088501,215.401184 
	C1493.690186,230.967239 1518.346191,237.198639 1545.410645,230.964432 
	C1567.042847,225.981461 1605.041870,198.704819 1607.407959,186.782990 
	C1606.695557,187.222595 1606.090454,187.480591 1605.628784,187.897476 
	C1581.806519,209.408417 1554.114868,221.567825 1521.805542,222.337418 
	C1502.884644,222.788116 1485.099731,218.698776 1469.403931,207.671021 
	C1454.453247,197.166824 1444.381470,182.504822 1435.870483,166.717743 
	C1430.700684,157.128250 1426.101685,147.231110 1420.976440,136.929718 
	C1419.292847,139.378250 1417.512939,141.380844 1416.457031,143.711472 
	C1415.769531,145.229004 1415.418945,147.605865 1416.135132,148.947952 
	C1429.818848,174.593674 1446.370361,197.925461 1471.088501,215.401184 
M956.181519,253.024918 
	C939.814575,254.363724 923.584717,253.544464 907.688049,249.250397 
	C883.925476,242.831528 865.185120,228.607834 848.851257,210.761459 
	C846.951050,208.685394 844.975830,206.677979 843.035461,204.638718 
	C864.413574,251.178391 922.793701,261.850006 965.915466,252.984863 
	C962.973145,252.984863 960.030823,252.984863 956.181519,253.024918 
M1685.450562,181.040863 
	C1681.961670,177.271500 1678.472778,173.502136 1674.983765,169.732773 
	C1679.517578,180.827713 1686.354980,190.028351 1695.452881,197.448898 
	C1720.122681,217.570694 1749.183472,222.303085 1779.819458,221.285065 
	C1784.611694,221.125824 1789.383179,220.347961 1794.164307,219.856155 
	C1774.296631,219.264008 1754.494263,219.702499 1735.304321,213.451477 
	C1716.010986,207.166779 1700.158081,195.651566 1685.450562,181.040863 
M10.046796,208.454651 
	C15.224137,213.829010 19.821333,219.960999 25.679222,224.446625 
	C51.104870,243.916092 80.571884,248.495911 111.613403,246.435760 
	C116.192039,246.131882 120.745888,245.454468 125.311203,244.949875 
	C117.967163,244.768005 110.723969,244.900177 103.487061,244.742950 
	C82.642662,244.290115 62.458881,241.139267 44.008751,230.481720 
	C30.014465,222.398071 17.989021,212.039001 7.309065,200.008423 
	C6.248876,198.814163 5.074907,197.720901 3.953748,196.580765 
	C3.650388,196.879776 3.347028,197.178787 3.043668,197.477798 
	C5.240863,200.941833 7.438058,204.405884 10.046796,208.454651 
M1305.478027,243.021927 
	C1289.054077,250.403381 1272.044678,255.689514 1252.856079,257.061981 
	C1280.873779,265.067627 1315.927979,248.846344 1332.082275,230.736526 
	C1323.816406,234.595276 1315.017944,238.702682 1305.478027,243.021927 
M451.351562,246.805191 
	C465.457275,243.035004 486.981567,229.638657 491.620026,222.038452 
	C467.015350,234.735519 441.856567,245.289062 414.157745,248.499207 
	C426.469421,251.029236 438.606140,251.004395 451.351562,246.805191 
z"/>
<path fill="#FFF7AE" opacity="1.000000" stroke="none" 
	d="
M1.000000,223.468658 
	C29.727556,250.336349 65.137932,256.410522 102.819145,254.507614 
	C139.453812,252.657593 172.347656,239.395477 204.854904,222.948914 
	C241.054611,204.634201 268.284912,175.890137 298.058960,149.943985 
	C300.277222,148.010895 301.854645,145.342377 303.730011,143.015778 
	C304.278503,143.303314 304.826996,143.590866 305.375488,143.878403 
	C305.918243,148.029495 306.397583,152.190033 307.014404,156.330093 
	C310.061737,176.784149 315.669495,196.276794 328.160675,213.244629 
	C337.066803,225.342575 348.481567,234.207062 362.167999,240.249756 
	C371.723450,244.468567 381.115112,249.115448 390.861511,252.832932 
	C412.203766,260.973358 433.707520,259.203094 455.016449,252.493866 
	C479.904388,244.657791 500.410736,229.982712 518.501160,211.492081 
	C534.299133,195.344574 547.731018,177.366577 560.398010,158.756134 
	C561.502869,157.132767 562.690979,155.565979 563.835999,153.979050 
	C570.763000,163.570786 577.150574,173.240143 584.369507,182.242966 
	C600.259216,202.059296 619.359070,217.831253 643.667725,226.391495 
	C668.780945,235.235092 693.748169,233.579285 718.463135,224.662628 
	C746.945068,214.386948 768.964905,195.367203 787.664307,172.267883 
	C796.550171,161.291199 804.377319,149.457016 812.670532,138.001465 
	C813.629211,136.677246 814.500916,135.290054 815.924866,133.169601 
	C820.264893,155.447647 824.444031,176.899780 828.708801,198.791779 
	C828.190491,199.080063 827.239990,199.701111 826.216980,200.160736 
	C822.907654,201.647552 822.631104,203.720001 824.100647,206.965790 
	C836.387512,234.104614 857.974243,250.278748 885.979492,257.768250 
	C931.768005,270.013611 976.224792,263.986603 1018.798279,244.434540 
	C1037.480225,235.854858 1055.327637,225.373901 1073.165039,215.081909 
	C1080.008057,211.133423 1086.028198,205.597809 1091.970947,200.279861 
	C1109.221680,184.842834 1126.242065,169.148209 1143.365112,153.568176 
	C1143.706787,153.257355 1144.198242,153.111404 1144.897461,152.741791 
	C1146.269897,161.059891 1147.341797,169.242874 1149.003418,177.304276 
	C1153.529907,199.265137 1162.107178,219.195618 1179.142700,234.583038 
	C1188.405640,242.949692 1199.002075,249.014725 1211.032837,252.572205 
	C1213.531738,253.311096 1215.849731,254.734985 1218.169800,255.993271 
	C1247.108154,271.687988 1276.418945,269.618958 1305.727661,257.445343 
	C1333.694702,245.828995 1355.352295,225.996872 1374.110840,202.848038 
	C1384.474365,190.058914 1393.981812,176.576096 1404.255127,162.900360 
	C1405.177979,164.352081 1406.200439,165.921265 1407.184448,167.514343 
	C1419.726929,187.821472 1434.695190,205.979568 1454.213135,220.010468 
	C1484.135620,241.521042 1516.792358,246.357468 1551.870850,235.580811 
	C1582.065552,226.304565 1605.519409,207.360168 1625.387329,183.547318 
	C1633.478760,173.849060 1640.895996,163.588196 1648.998901,153.092575 
	C1650.649902,157.252090 1652.507446,161.330658 1653.908691,165.560425 
	C1662.944580,192.835205 1682.180176,210.033798 1708.297485,220.092209 
	C1732.249512,229.316818 1757.175659,230.756470 1782.532837,228.367310 
	C1816.445679,225.172028 1846.946533,212.641205 1877.059326,197.268112 
	C1904.278564,183.372253 1926.439575,163.628662 1948.806152,143.733078 
	C1958.233032,135.347565 1967.534180,126.820747 1977.071655,118.196083 
	C1978.384033,126.305908 1979.386353,134.361252 1981.025269,142.284973 
	C1986.221436,167.409454 1995.935303,190.455231 2017.936157,205.235550 
	C2035.567627,217.080551 2055.038330,226.380539 2075.949707,230.752731 
	C2105.192627,236.866913 2131.871582,228.080627 2156.931396,213.259247 
	C2158.076172,212.582169 2159.195557,211.862427 2160.663574,211.081268 
	C2161.000000,240.994370 2161.000000,270.988739 2161.000000,300.961273 
	C1441.000000,300.961273 721.000000,300.961273 1.000000,300.961273 
	C1.000000,275.260803 1.000000,249.599060 1.000000,223.468658 
z"/>
<path fill="#FBF4AC" opacity="1.000000" stroke="none" 
	d="
M0.999999,157.399994 
	C4.963672,155.416199 8.844404,153.558456 12.914506,152.326172 
	C16.927940,151.111023 19.431955,152.602905 21.377188,156.828476 
	C34.665283,185.693848 54.452572,208.859879 82.506004,224.378372 
	C93.858818,230.658463 106.321602,233.506500 119.127945,234.972580 
	C119.900597,235.061035 120.665382,235.218201 121.394722,235.690475 
	C106.233727,237.289474 91.276558,236.283783 76.727219,231.577835 
	C51.340939,223.366684 32.370041,206.493057 16.730804,185.645370 
	C10.987853,177.989807 6.687220,169.252274 1.364338,161.004135 
	C1.000000,159.933334 1.000000,158.866653 0.999999,157.399994 
z"/>
<path fill="#F3EDA8" opacity="1.000000" stroke="none" 
	d="
M2161.000000,200.624969 
	C2156.762939,203.783722 2152.561035,206.622452 2148.282959,209.341354 
	C2133.123291,218.975525 2116.947998,225.459824 2098.606445,224.821732 
	C2094.591064,224.682022 2090.594238,224.006470 2086.645264,223.092834 
	C2112.871826,219.345383 2137.218506,210.628891 2160.654297,198.070312 
	C2161.000000,198.750000 2161.000000,199.500000 2161.000000,200.624969 
z"/>
<path fill="#FBF4AC" opacity="1.000000" stroke="none" 
	d="
M875.617676,191.374115 
	C892.936279,214.623230 913.445129,233.085724 941.901855,240.598465 
	C949.407043,242.579880 957.223511,243.382141 964.385986,244.636368 
	C955.655396,244.636368 946.231934,245.607880 937.069397,244.472916 
	C890.427063,238.695312 861.614075,209.413483 841.819214,169.612381 
	C837.820557,161.572357 837.576050,151.573730 836.091919,142.398666 
	C834.392029,131.889832 833.257874,121.289986 831.838989,110.734917 
	C831.394165,107.425949 831.571777,103.524948 826.682617,104.407646 
	C824.020508,99.909004 825.491943,95.943405 828.807800,94.000443 
	C832.918457,91.591789 837.900085,90.612183 842.596313,89.354500 
	C843.034790,89.237061 844.452209,91.456337 844.841492,92.761780 
	C845.551086,95.140800 845.759277,97.664574 846.321533,100.094414 
	C846.572632,101.179375 847.106628,103.050804 847.627563,103.091583 
	C853.872253,103.580383 852.349731,108.636894 852.918335,112.154396 
	C855.759094,129.726685 857.291687,147.603699 861.535339,164.818634 
	C863.835022,174.147491 870.630066,182.368210 875.617676,191.374115 
z"/>
<path fill="#FBF3AC" opacity="1.000000" stroke="none" 
	d="
M327.617157,101.688309 
	C330.099213,100.768280 332.563873,99.797562 335.067139,98.939392 
	C339.470062,97.429993 342.537567,97.963722 341.520203,104.237541 
	C345.298523,102.984825 348.484558,101.850029 351.719177,100.876511 
	C355.491882,99.741013 357.070740,100.930466 357.171112,105.174950 
	C357.738983,129.186188 359.675842,153.034851 367.003296,176.121979 
	C373.945587,197.995560 385.292145,216.909073 403.041229,231.918076 
	C409.082184,237.026443 415.805634,238.594345 423.217743,239.126709 
	C423.177521,239.688171 423.137299,240.249634 423.097046,240.811081 
	C414.536560,240.417206 405.974609,240.051590 397.416016,239.619751 
	C391.514862,239.322006 386.777313,236.623322 382.258911,232.890366 
	C359.741882,214.287567 347.574310,189.661652 342.281769,161.713028 
	C339.013672,144.454880 337.961243,126.753792 336.382843,109.209389 
	C335.650208,101.065964 336.876892,101.044174 327.927979,101.903625 
	C327.544067,101.646194 327.617157,101.688309 327.617157,101.688309 
z"/>
<path fill="#FBF4AC" opacity="1.000000" stroke="none" 
	d="
M1200.044678,216.951996 
	C1186.388794,195.292068 1180.757324,171.482849 1178.042969,146.787155 
	C1177.315552,140.168961 1176.998779,133.505814 1176.483032,126.864136 
	C1175.717896,117.015015 1183.697632,109.024025 1193.719116,109.486443 
	C1197.274170,109.650482 1196.809204,112.085915 1197.003418,114.428680 
	C1198.295044,130.014267 1198.794922,145.728806 1201.196289,161.145355 
	C1205.610596,189.487671 1215.921265,215.315002 1237.136963,235.773102 
	C1244.655273,243.022995 1252.573120,249.073151 1263.789062,248.702484 
	C1255.073853,248.702484 1246.355347,248.845856 1237.644409,248.653290 
	C1231.594849,248.519562 1226.204346,246.247192 1222.087891,241.764725 
	C1214.684326,233.702942 1207.491333,225.447983 1200.044678,216.951996 
z"/>
<path fill="#FCF4AD" opacity="1.000000" stroke="none" 
	d="
M2031.310791,114.511597 
	C2034.123535,134.972870 2038.603760,154.470215 2047.996582,172.590439 
	C2055.631592,187.319397 2065.940918,199.717728 2079.261230,209.617020 
	C2080.725830,210.705399 2082.029053,212.009903 2083.483154,213.113785 
	C2083.979004,213.490265 2084.708984,213.557938 2084.872070,214.393814 
	C2072.726562,214.736511 2061.493652,214.562912 2051.737549,205.632660 
	C2032.454346,187.981430 2020.657959,166.171066 2015.350586,141.134262 
	C2011.747925,124.138649 2010.259644,106.638290 2008.860718,89.280258 
	C2008.585083,85.861160 2012.889404,81.948723 2015.409180,78.503410 
	C2016.176270,77.454712 2017.991577,77.044273 2019.410400,76.622185 
	C2027.279419,74.281036 2029.137329,72.687469 2029.240845,83.194771 
	C2029.342529,93.491409 2030.528076,103.777359 2031.310791,114.511597 
z"/>
<path fill="#FCF4AC" opacity="1.000000" stroke="none" 
	d="
M1765.353760,203.820236 
	C1773.638184,205.946350 1781.545776,207.952637 1790.311890,210.176727 
	C1774.577271,213.170151 1748.629272,208.584778 1733.315918,199.761230 
	C1705.698975,183.848373 1685.033203,161.543777 1672.491821,132.006622 
	C1669.781982,125.624458 1667.011230,119.263046 1664.064575,112.987747 
	C1660.209839,104.777733 1665.487183,99.266693 1672.733887,97.291252 
	C1680.326172,95.221626 1688.741211,97.051941 1690.176758,108.237709 
	C1690.933350,114.132408 1692.692871,119.921082 1693.167480,125.824524 
	C1694.127563,137.766464 1700.789185,146.977798 1707.303223,156.114380 
	C1722.241333,177.066681 1740.705688,193.957474 1765.353760,203.820236 
z"/>
<path fill="#FBF4AC" opacity="1.000000" stroke="none" 
	d="
M1483.369263,199.631165 
	C1469.732910,189.149963 1460.294556,175.677933 1452.457764,161.083084 
	C1446.568970,150.115936 1441.582886,138.667358 1435.935059,127.565247 
	C1434.385986,124.520248 1435.009521,121.895279 1437.339844,120.621971 
	C1441.016479,118.613052 1445.159912,117.147903 1449.276001,116.431892 
	C1450.611572,116.199577 1453.105469,118.722176 1454.005859,120.517937 
	C1460.407837,133.287155 1466.169067,146.387390 1472.836792,159.011215 
	C1482.021973,176.401016 1493.173828,192.533600 1510.575806,202.632050 
	C1519.195312,207.633957 1529.012207,210.572433 1536.854736,213.846420 
	C1521.939331,217.336273 1500.860474,212.150253 1483.369263,199.631165 
z"/>
<path fill="#FBF4AC" opacity="1.000000" stroke="none" 
	d="
M611.129578,107.561203 
	C612.655273,109.472328 614.105530,111.080414 614.966370,112.958664 
	C623.558716,131.707123 631.769165,150.648972 643.764099,167.603928 
	C654.904968,183.351486 668.593018,195.828720 687.527588,201.467590 
	C691.457031,202.637787 695.511963,203.386200 699.419312,204.587982 
	C666.372314,208.857025 640.970764,195.711487 623.272705,168.616501 
	C612.782715,152.556686 604.913818,134.782471 595.909485,117.756302 
	C593.841736,113.846428 596.864746,111.438034 599.420227,110.237617 
	C602.888550,108.608353 606.964966,108.273560 611.129578,107.561203 
z"/>
<path fill="#F7F1AA" opacity="1.000000" stroke="none" 
	d="
M627.845825,204.129456 
	C604.933167,186.936874 589.203430,164.403671 576.090149,139.796112 
	C575.520203,138.726593 575.442993,136.864059 575.995422,135.829666 
	C577.456360,133.093857 579.389648,130.610229 580.669556,128.715317 
	C589.216248,143.955399 597.102112,159.550705 606.418091,174.238968 
	C617.935120,192.397537 634.006836,205.359879 655.387878,210.435089 
	C679.097229,216.062958 702.238281,214.183289 724.765320,204.531311 
	C740.006836,198.000916 754.614624,190.612228 766.301819,178.476944 
	C766.564453,178.204193 767.141968,178.234756 767.748840,178.078430 
	C739.761230,217.941193 682.732300,244.991165 627.845825,204.129456 
z"/>
<path fill="#F8F1AB" opacity="1.000000" stroke="none" 
	d="
M1470.791016,215.199234 
	C1446.370361,197.925461 1429.818848,174.593674 1416.135132,148.947952 
	C1415.418945,147.605865 1415.769531,145.229004 1416.457031,143.711472 
	C1417.512939,141.380844 1419.292847,139.378250 1420.976440,136.929718 
	C1426.101685,147.231110 1430.700684,157.128250 1435.870483,166.717743 
	C1444.381470,182.504822 1454.453247,197.166824 1469.403931,207.671021 
	C1485.099731,218.698776 1502.884644,222.788116 1521.805542,222.337418 
	C1554.114868,221.567825 1581.806519,209.408417 1605.628784,187.897476 
	C1606.090454,187.480591 1606.695557,187.222595 1607.407959,186.782990 
	C1605.041870,198.704819 1567.042847,225.981461 1545.410645,230.964432 
	C1518.346191,237.198639 1493.690186,230.967239 1470.791016,215.199234 
z"/>
<path fill="#EFEAA6" opacity="1.000000" stroke="none" 
	d="
M956.635010,253.004883 
	C960.030823,252.984863 962.973145,252.984863 965.915466,252.984863 
	C922.793701,261.850006 864.413574,251.178391 843.035461,204.638718 
	C844.975830,206.677979 846.951050,208.685394 848.851257,210.761459 
	C865.185120,228.607834 883.925476,242.831528 907.688049,249.250397 
	C923.584717,253.544464 939.814575,254.363724 956.635010,253.004883 
z"/>
<path fill="#EFEAA6" opacity="1.000000" stroke="none" 
	d="
M1685.700562,181.293671 
	C1700.158081,195.651566 1716.010986,207.166779 1735.304321,213.451477 
	C1754.494263,219.702499 1774.296631,219.264008 1794.164307,219.856155 
	C1789.383179,220.347961 1784.611694,221.125824 1779.819458,221.285065 
	C1749.183472,222.303085 1720.122681,217.570694 1695.452881,197.448898 
	C1686.354980,190.028351 1679.517578,180.827713 1674.983765,169.732773 
	C1678.472778,173.502136 1681.961670,177.271500 1685.700562,181.293671 
z"/>
<path fill="#F0EBA7" opacity="1.000000" stroke="none" 
	d="
M9.841024,208.162292 
	C7.438058,204.405884 5.240863,200.941833 3.043668,197.477798 
	C3.347028,197.178787 3.650388,196.879776 3.953748,196.580765 
	C5.074907,197.720901 6.248876,198.814163 7.309065,200.008423 
	C17.989021,212.039001 30.014465,222.398071 44.008751,230.481720 
	C62.458881,241.139267 82.642662,244.290115 103.487061,244.742950 
	C110.723969,244.900177 117.967163,244.768005 125.311203,244.949875 
	C120.745888,245.454468 116.192039,246.131882 111.613403,246.435760 
	C80.571884,248.495911 51.104870,243.916092 25.679222,224.446625 
	C19.821333,219.960999 15.224137,213.829010 9.841024,208.162292 
z"/>
<path fill="#F5EEA9" opacity="1.000000" stroke="none" 
	d="
M1305.848633,242.916016 
	C1315.017944,238.702682 1323.816406,234.595276 1332.082275,230.736526 
	C1315.927979,248.846344 1280.873779,265.067627 1252.856079,257.061981 
	C1272.044678,255.689514 1289.054077,250.403381 1305.848633,242.916016 
z"/>
<path fill="#F4EEA9" opacity="1.000000" stroke="none" 
	d="
M450.959778,246.901871 
	C438.606140,251.004395 426.469421,251.029236 414.157745,248.499207 
	C441.856567,245.289062 467.015350,234.735519 491.620026,222.038452 
	C486.981567,229.638657 465.457275,243.035004 450.959778,246.901871 
z"/>
<path fill="#FBF3AC" opacity="1.000000" stroke="none" 
	d="
M327.507446,101.625336 
	C327.567505,101.948952 327.664246,102.293427 327.760986,102.637901 
	C327.467682,102.666733 327.174408,102.695564 326.881134,102.724411 
	C327.033478,102.496498 327.185822,102.268585 327.477661,101.864487 
	C327.617157,101.688309 327.544067,101.646194 327.507446,101.625336 
z"/>
</svg>