<svg version="1.1" id="Layer_1" xmlns="http://www.w3.org/2000/svg" xmlns:xlink="http://www.w3.org/1999/xlink" x="0px" y="0px"
	 width="100%" viewBox="0 0 1080 300" enable-background="new 0 0 1080 300" xml:space="preserve">
<path fill="#183642" opacity="1.000000" stroke="none" 
	d="
M1.000000,267.000000 
	C1.000000,178.356339 1.000000,89.712685 1.000000,1.034516 
	C360.883545,1.034516 720.767090,1.034516 1081.000000,1.034516 
	C1081.000000,95.025543 1081.000000,189.051514 1080.642334,283.452271 
	C1075.475098,282.857910 1070.639160,280.966095 1065.860840,281.101990 
	C1054.063477,281.437469 1042.303223,282.898041 1030.508301,283.548645 
	C1012.656433,284.533325 994.871948,283.995941 977.516602,279.092865 
	C957.722473,273.500854 943.004639,262.120300 938.585754,241.167801 
	C936.728149,232.359558 936.464172,222.920471 937.208435,213.911301 
	C939.863159,181.774857 955.594116,158.622925 986.647949,147.890381 
	C997.857727,144.016205 1009.820007,141.564377 1021.630981,140.380676 
	C1035.655029,138.975174 1049.885498,139.558960 1064.027832,139.449448 
	C1068.281006,139.416504 1071.501709,138.186325 1073.222656,134.065033 
	C1074.858521,130.147308 1073.824097,126.938988 1070.738770,124.219925 
	C1050.590088,106.462624 1028.597290,91.727402 1002.880310,83.220573 
	C971.558228,72.859665 940.248657,73.924881 909.175049,84.168259 
	C869.285156,97.317909 833.605225,117.388733 806.025330,149.788361 
	C798.516113,158.609970 791.863098,168.330338 785.958923,178.313522 
	C773.104065,200.049377 760.718140,221.892685 745.613586,242.376831 
	C727.623291,266.774628 705.156616,282.008759 675.410217,284.796844 
	C655.248047,286.686646 634.798950,285.347778 614.492676,285.947205 
	C605.812744,286.203400 598.474976,283.537750 591.752563,278.542450 
	C575.062988,266.140594 566.931824,248.880341 564.510986,228.774628 
	C561.718872,205.586365 566.085388,184.216797 583.022095,166.928802 
	C595.878113,153.806107 612.142151,146.703888 629.628113,142.148117 
	C650.271606,136.769699 671.315369,135.453247 692.543457,136.377853 
	C697.051819,136.574203 700.323547,135.010315 702.023438,130.693756 
	C703.684937,126.474808 702.307251,123.052422 698.776001,120.680168 
	C688.172729,113.556938 678.011536,105.495895 666.675049,99.794746 
	C628.263855,80.477600 587.410706,76.566193 545.557495,84.292580 
	C490.802582,94.400719 446.567780,121.279129 416.060883,168.814880 
	C406.172607,184.222717 396.607666,199.838684 386.663269,215.209641 
	C374.053833,234.699814 359.096680,252.192627 338.753906,263.849670 
	C307.214966,281.922455 273.621338,285.755493 239.160522,273.856842 
	C210.279099,263.884644 192.773590,241.900589 194.898026,210.805176 
	C197.252426,176.344086 214.370377,149.571564 249.102783,139.058182 
	C271.998108,132.127869 295.468048,132.511459 318.958954,133.545609 
	C323.948944,133.765289 327.899353,133.213028 330.024811,128.200592 
	C332.247345,122.959236 329.292725,119.812111 325.574707,116.774696 
	C281.574524,80.829422 231.381470,71.308640 176.743118,82.801689 
	C129.594391,92.719307 89.677086,116.105774 56.545593,150.930908 
	C30.168074,178.656799 12.166744,210.992722 4.530532,248.756317 
	C3.302916,254.827271 2.174354,260.918274 1.000000,267.000000 
z"/>
<path fill="#FEF6AE" opacity="1.000000" stroke="none" 
	d="
M1.000000,267.468658 
	C2.174354,260.918274 3.302916,254.827271 4.530532,248.756317 
	C12.166744,210.992722 30.168074,178.656799 56.545593,150.930908 
	C89.677086,116.105774 129.594391,92.719307 176.743118,82.801689 
	C231.381470,71.308640 281.574524,80.829422 325.574707,116.774696 
	C329.292725,119.812111 332.247345,122.959236 330.024811,128.200592 
	C327.899353,133.213028 323.948944,133.765289 318.958954,133.545609 
	C295.468048,132.511459 271.998108,132.127869 249.102783,139.058182 
	C214.370377,149.571564 197.252426,176.344086 194.898026,210.805176 
	C192.773590,241.900589 210.279099,263.884644 239.160522,273.856842 
	C273.621338,285.755493 307.214966,281.922455 338.753906,263.849670 
	C359.096680,252.192627 374.053833,234.699814 386.663269,215.209641 
	C396.607666,199.838684 406.172607,184.222717 416.060883,168.814880 
	C446.567780,121.279129 490.802582,94.400719 545.557495,84.292580 
	C587.410706,76.566193 628.263855,80.477600 666.675049,99.794746 
	C678.011536,105.495895 688.172729,113.556938 698.776001,120.680168 
	C702.307251,123.052422 703.684937,126.474808 702.023438,130.693756 
	C700.323547,135.010315 697.051819,136.574203 692.543457,136.377853 
	C671.315369,135.453247 650.271606,136.769699 629.628113,142.148117 
	C612.142151,146.703888 595.878113,153.806107 583.022095,166.928802 
	C566.085388,184.216797 561.718872,205.586365 564.510986,228.774628 
	C566.931824,248.880341 575.062988,266.140594 591.752563,278.542450 
	C598.474976,283.537750 605.812744,286.203400 614.492676,285.947205 
	C634.798950,285.347778 655.248047,286.686646 675.410217,284.796844 
	C705.156616,282.008759 727.623291,266.774628 745.613586,242.376831 
	C760.718140,221.892685 773.104065,200.049377 785.958923,178.313522 
	C791.863098,168.330338 798.516113,158.609970 806.025330,149.788361 
	C833.605225,117.388733 869.285156,97.317909 909.175049,84.168259 
	C940.248657,73.924881 971.558228,72.859665 1002.880310,83.220573 
	C1028.597290,91.727402 1050.590088,106.462624 1070.738770,124.219925 
	C1073.824097,126.938988 1074.858521,130.147308 1073.222656,134.065033 
	C1071.501709,138.186325 1068.281006,139.416504 1064.027832,139.449448 
	C1049.885498,139.558960 1035.655029,138.975174 1021.630981,140.380676 
	C1009.820007,141.564377 997.857727,144.016205 986.647949,147.890381 
	C955.594116,158.622925 939.863159,181.774857 937.208435,213.911301 
	C936.464172,222.920471 936.728149,232.359558 938.585754,241.167801 
	C943.004639,262.120300 957.722473,273.500854 977.516602,279.092865 
	C994.871948,283.995941 1012.656433,284.533325 1030.508301,283.548645 
	C1042.303223,282.898041 1054.063477,281.437469 1065.860840,281.101990 
	C1070.639160,280.966095 1075.475098,282.857910 1080.642334,283.913513 
	C1081.000000,289.664490 1081.000000,295.328949 1081.000000,300.962250 
	C721.000000,300.962250 361.000000,300.962250 1.000000,300.962250 
	C1.000000,289.928772 1.000000,278.933044 1.000000,267.468658 
z"/>
</svg>